<svg width="31" height="46" viewBox="0 0 31 46" fill="none" xmlns="http://www.w3.org/2000/svg">
<path d="M7.5 21C6.95 21 6.479 20.804 6.087 20.412C5.695 20.02 5.49934 19.5493 5.5 19V8C5.5 7.45 5.696 6.979 6.088 6.587C6.48 6.195 6.95067 5.99934 7.5 6H11.5V4C11.5 3.45 11.696 2.979 12.088 2.587C12.48 2.195 12.9507 1.99934 13.5 2H17.5C18.05 2 18.521 2.196 18.913 2.588C19.305 2.98 19.5007 3.45067 19.5 4V6H23.5C24.05 6 24.521 6.196 24.913 6.588C25.305 6.98 25.5007 7.45067 25.5 8V19C25.5 19.55 25.304 20.021 24.912 20.413C24.52 20.805 24.0493 21.0007 23.5 21H7.5ZM7.5 19H23.5V8H7.5V19ZM13.5 6H17.5V4H13.5V6Z" fill="#1A1003" fill-opacity="0.5"/>
<path d="M3.984 31.516H5.244L6.3 34.408L7.368 31.516H8.628L7.164 35.308L8.436 38.44L11.088 31.48H12.564L9.072 40H7.908L6.312 36.184L4.704 40H3.528L0.048 31.48H1.512L4.176 38.44L5.448 35.308L3.984 31.516ZM15.3893 40.12C14.8933 40.12 14.4493 40.036 14.0573 39.868C13.6653 39.692 13.3253 39.452 13.0373 39.148C12.7573 38.844 12.5413 38.5 12.3893 38.116C12.2373 37.724 12.1613 37.308 12.1613 36.868C12.1613 36.428 12.2373 36.012 12.3893 35.62C12.5413 35.228 12.7573 34.884 13.0373 34.588C13.3253 34.284 13.6653 34.048 14.0573 33.88C14.4573 33.704 14.9013 33.616 15.3893 33.616C15.8773 33.616 16.3173 33.704 16.7093 33.88C17.1093 34.048 17.4493 34.284 17.7293 34.588C18.0173 34.884 18.2373 35.228 18.3893 35.62C18.5413 36.012 18.6173 36.428 18.6173 36.868C18.6173 37.308 18.5413 37.724 18.3893 38.116C18.2373 38.5 18.0173 38.844 17.7293 39.148C17.4493 39.452 17.1093 39.692 16.7093 39.868C16.3173 40.036 15.8773 40.12 15.3893 40.12ZM13.5173 36.88C13.5173 37.28 13.6013 37.64 13.7693 37.96C13.9373 38.28 14.1613 38.532 14.4413 38.716C14.7213 38.9 15.0373 38.992 15.3893 38.992C15.7333 38.992 16.0453 38.9 16.3253 38.716C16.6133 38.524 16.8413 38.268 17.0093 37.948C17.1773 37.62 17.2613 37.26 17.2613 36.868C17.2613 36.468 17.1773 36.108 17.0093 35.788C16.8413 35.468 16.6133 35.216 16.3253 35.032C16.0453 34.84 15.7333 34.744 15.3893 34.744C15.0373 34.744 14.7213 34.84 14.4413 35.032C14.1613 35.224 13.9373 35.48 13.7693 35.8C13.6013 36.112 13.5173 36.472 13.5173 36.88ZM23.3161 34.864C22.8041 34.872 22.3481 34.988 21.9481 35.212C21.5561 35.436 21.2761 35.752 21.1081 36.16V40H19.7881V33.724H21.0121V35.128C21.2281 34.696 21.5121 34.352 21.8641 34.096C22.2161 33.832 22.5881 33.688 22.9801 33.664C23.0601 33.664 23.1241 33.664 23.1721 33.664C23.2281 33.664 23.2761 33.668 23.3161 33.676V34.864ZM28.6444 40L26.6284 37.108L25.5964 38.092V40H24.2764V31.24H25.5964V36.76L28.5004 33.736H29.9164L27.4804 36.364L30.0484 40H28.6444Z" fill="black"/>
</svg>
