<svg width="45" height="44" viewBox="0 0 45 44" fill="none" xmlns="http://www.w3.org/2000/svg">
<path d="M31.5 2H16.5C15.9696 2 15.4609 2.21071 15.0858 2.58579C14.7107 2.96086 14.5 3.46957 14.5 4V7H12.5V9H14.5V11H12.5V13H14.5V15H12.5V17H14.5V20C14.5 20.5304 14.7107 21.0391 15.0858 21.4142C15.4609 21.7893 15.9696 22 16.5 22H31.5C31.7652 22 32.0196 21.8946 32.2071 21.7071C32.3946 21.5196 32.5 21.2652 32.5 21V3C32.5 2.73478 32.3946 2.48043 32.2071 2.29289C32.0196 2.10536 31.7652 2 31.5 2ZM23.5 4.999C25.148 4.999 26.5 6.35 26.5 7.999C26.4971 8.79385 26.1801 9.55533 25.6182 10.1175C25.0562 10.6796 24.2948 10.9968 23.5 11C21.853 11 20.5 9.647 20.5 7.999C20.5 6.35 21.853 4.999 23.5 4.999ZM29.5 18H17.5V17.25C17.5 15.031 20.205 12.75 23.5 12.75C26.795 12.75 29.5 15.031 29.5 17.25V18Z" fill="#1A1003" fill-opacity="0.5"/>
<path d="M0.42 33.68C0.42 33.16 0.512 32.652 0.696 32.156C0.88 31.652 1.148 31.196 1.5 30.788C1.86 30.372 2.296 30.044 2.808 29.804C3.32 29.556 3.9 29.432 4.548 29.432C5.316 29.432 5.98 29.608 6.54 29.96C7.1 30.304 7.516 30.748 7.788 31.292L6.732 32C6.572 31.656 6.368 31.384 6.12 31.184C5.88 30.984 5.616 30.844 5.328 30.764C5.048 30.684 4.772 30.644 4.5 30.644C4.052 30.644 3.66 30.736 3.324 30.92C2.988 31.096 2.704 31.332 2.472 31.628C2.248 31.924 2.076 32.256 1.956 32.624C1.844 32.992 1.788 33.36 1.788 33.728C1.788 34.136 1.856 34.532 1.992 34.916C2.128 35.292 2.316 35.628 2.556 35.924C2.804 36.212 3.096 36.44 3.432 36.608C3.768 36.776 4.136 36.86 4.536 36.86C4.808 36.86 5.092 36.812 5.388 36.716C5.684 36.62 5.956 36.472 6.204 36.272C6.46 36.064 6.66 35.792 6.804 35.456L7.92 36.092C7.744 36.516 7.468 36.876 7.092 37.172C6.724 37.468 6.308 37.692 5.844 37.844C5.388 37.996 4.936 38.072 4.488 38.072C3.888 38.072 3.34 37.948 2.844 37.7C2.348 37.444 1.92 37.108 1.56 36.692C1.2 36.268 0.92 35.796 0.72 35.276C0.52 34.748 0.42 34.216 0.42 33.68ZM11.8034 38.12C11.3074 38.12 10.8634 38.036 10.4714 37.868C10.0794 37.692 9.73941 37.452 9.45141 37.148C9.17141 36.844 8.95541 36.5 8.80341 36.116C8.65141 35.724 8.57541 35.308 8.57541 34.868C8.57541 34.428 8.65141 34.012 8.80341 33.62C8.95541 33.228 9.17141 32.884 9.45141 32.588C9.73941 32.284 10.0794 32.048 10.4714 31.88C10.8714 31.704 11.3154 31.616 11.8034 31.616C12.2914 31.616 12.7314 31.704 13.1234 31.88C13.5234 32.048 13.8634 32.284 14.1434 32.588C14.4314 32.884 14.6514 33.228 14.8034 33.62C14.9554 34.012 15.0314 34.428 15.0314 34.868C15.0314 35.308 14.9554 35.724 14.8034 36.116C14.6514 36.5 14.4314 36.844 14.1434 37.148C13.8634 37.452 13.5234 37.692 13.1234 37.868C12.7314 38.036 12.2914 38.12 11.8034 38.12ZM9.93141 34.88C9.93141 35.28 10.0154 35.64 10.1834 35.96C10.3514 36.28 10.5754 36.532 10.8554 36.716C11.1354 36.9 11.4514 36.992 11.8034 36.992C12.1474 36.992 12.4594 36.9 12.7394 36.716C13.0274 36.524 13.2554 36.268 13.4234 35.948C13.5914 35.62 13.6754 35.26 13.6754 34.868C13.6754 34.468 13.5914 34.108 13.4234 33.788C13.2554 33.468 13.0274 33.216 12.7394 33.032C12.4594 32.84 12.1474 32.744 11.8034 32.744C11.4514 32.744 11.1354 32.84 10.8554 33.032C10.5754 33.224 10.3514 33.48 10.1834 33.8C10.0154 34.112 9.93141 34.472 9.93141 34.88ZM21.8302 38H20.5102V34.484C20.5102 33.9 20.4142 33.472 20.2222 33.2C20.0382 32.928 19.7622 32.792 19.3942 32.792C19.1382 32.792 18.8822 32.856 18.6262 32.984C18.3782 33.112 18.1542 33.288 17.9542 33.512C17.7542 33.728 17.6102 33.98 17.5222 34.268V38H16.2022V31.724H17.4022V32.984C17.5622 32.704 17.7702 32.464 18.0262 32.264C18.2902 32.056 18.5862 31.896 18.9142 31.784C19.2422 31.672 19.5902 31.616 19.9582 31.616C20.3342 31.616 20.6422 31.684 20.8822 31.82C21.1302 31.956 21.3222 32.144 21.4582 32.384C21.6022 32.616 21.6982 32.888 21.7462 33.2C21.8022 33.504 21.8302 33.828 21.8302 34.172V38ZM26.8074 37.676C26.6954 37.732 26.5554 37.792 26.3874 37.856C26.2194 37.92 26.0274 37.976 25.8114 38.024C25.6034 38.072 25.3874 38.096 25.1634 38.096C24.8914 38.096 24.6394 38.048 24.4074 37.952C24.1754 37.856 23.9874 37.704 23.8434 37.496C23.7074 37.28 23.6394 37.004 23.6394 36.668V32.744H22.8114V31.724H23.6394V29.66H24.9594V31.724H26.3274V32.744H24.9594V36.248C24.9754 36.464 25.0434 36.624 25.1634 36.728C25.2914 36.832 25.4474 36.884 25.6314 36.884C25.8154 36.884 25.9914 36.852 26.1594 36.788C26.3274 36.724 26.4514 36.672 26.5314 36.632L26.8074 37.676ZM27.2657 36.164C27.2657 35.764 27.3777 35.416 27.6017 35.12C27.8337 34.816 28.1497 34.584 28.5497 34.424C28.9497 34.256 29.4137 34.172 29.9417 34.172C30.2217 34.172 30.5057 34.192 30.7937 34.232C31.0897 34.272 31.3497 34.336 31.5737 34.424V34.028C31.5737 33.588 31.4417 33.244 31.1777 32.996C30.9137 32.748 30.5337 32.624 30.0377 32.624C29.6857 32.624 29.3537 32.688 29.0417 32.816C28.7297 32.936 28.3977 33.108 28.0457 33.332L27.6017 32.444C28.0177 32.164 28.4337 31.956 28.8497 31.82C29.2737 31.684 29.7177 31.616 30.1817 31.616C31.0217 31.616 31.6817 31.84 32.1617 32.288C32.6497 32.728 32.8937 33.356 32.8937 34.172V36.512C32.8937 36.664 32.9177 36.772 32.9657 36.836C33.0217 36.9 33.1137 36.936 33.2417 36.944V38C33.1217 38.024 33.0137 38.04 32.9177 38.048C32.8217 38.056 32.7417 38.06 32.6777 38.06C32.3977 38.06 32.1857 37.992 32.0417 37.856C31.8977 37.72 31.8137 37.56 31.7897 37.376L31.7537 37.016C31.4817 37.368 31.1337 37.64 30.7097 37.832C30.2857 38.024 29.8577 38.12 29.4257 38.12C29.0097 38.12 28.6377 38.036 28.3097 37.868C27.9817 37.692 27.7257 37.456 27.5417 37.16C27.3577 36.864 27.2657 36.532 27.2657 36.164ZM31.2617 36.548C31.3577 36.444 31.4337 36.34 31.4897 36.236C31.5457 36.132 31.5737 36.04 31.5737 35.96V35.24C31.3497 35.152 31.1137 35.088 30.8657 35.048C30.6177 35 30.3737 34.976 30.1337 34.976C29.6537 34.976 29.2617 35.072 28.9577 35.264C28.6617 35.456 28.5137 35.72 28.5137 36.056C28.5137 36.24 28.5617 36.416 28.6577 36.584C28.7617 36.752 28.9057 36.888 29.0897 36.992C29.2817 37.096 29.5177 37.148 29.7977 37.148C30.0857 37.148 30.3617 37.092 30.6257 36.98C30.8897 36.868 31.1017 36.724 31.2617 36.548ZM37.3391 38.12C36.8511 38.12 36.4071 38.036 36.0071 37.868C35.6151 37.692 35.2751 37.452 34.9871 37.148C34.6991 36.844 34.4751 36.496 34.3151 36.104C34.1631 35.712 34.0871 35.296 34.0871 34.856C34.0871 34.264 34.2191 33.724 34.4831 33.236C34.7551 32.748 35.1311 32.356 35.6111 32.06C36.0991 31.764 36.6751 31.616 37.3391 31.616C37.9791 31.616 38.5351 31.76 39.0071 32.048C39.4871 32.328 39.8391 32.704 40.0631 33.176L38.7791 33.584C38.6351 33.32 38.4311 33.116 38.1671 32.972C37.9111 32.82 37.6271 32.744 37.3151 32.744C36.9631 32.744 36.6431 32.836 36.3551 33.02C36.0751 33.196 35.8511 33.444 35.6831 33.764C35.5231 34.076 35.4431 34.44 35.4431 34.856C35.4431 35.256 35.5271 35.62 35.6951 35.948C35.8631 36.268 36.0871 36.524 36.3671 36.716C36.6551 36.9 36.9751 36.992 37.3271 36.992C37.5431 36.992 37.7511 36.956 37.9511 36.884C38.1591 36.804 38.3391 36.7 38.4911 36.572C38.6431 36.436 38.7511 36.288 38.8151 36.128L40.1111 36.512C39.9751 36.824 39.7711 37.1 39.4991 37.34C39.2351 37.58 38.9191 37.772 38.5511 37.916C38.1911 38.052 37.7871 38.12 37.3391 38.12ZM44.6903 37.676C44.5783 37.732 44.4383 37.792 44.2703 37.856C44.1023 37.92 43.9103 37.976 43.6943 38.024C43.4863 38.072 43.2703 38.096 43.0463 38.096C42.7743 38.096 42.5223 38.048 42.2903 37.952C42.0583 37.856 41.8703 37.704 41.7263 37.496C41.5903 37.28 41.5223 37.004 41.5223 36.668V32.744H40.6943V31.724H41.5223V29.66H42.8423V31.724H44.2103V32.744H42.8423V36.248C42.8583 36.464 42.9263 36.624 43.0463 36.728C43.1743 36.832 43.3303 36.884 43.5143 36.884C43.6983 36.884 43.8743 36.852 44.0423 36.788C44.2103 36.724 44.3343 36.672 44.4143 36.632L44.6903 37.676Z" fill="black"/>
</svg>
