<svg width="35" height="44" viewBox="0 0 35 44" fill="none" xmlns="http://www.w3.org/2000/svg">
<path d="M17.959 1.6601C17.8259 1.55635 17.662 1.5 17.4932 1.5C17.3245 1.5 17.1606 1.55635 17.0275 1.6601L6.25 10.0639L7.18225 11.2429L8.5 10.2154V19.4996C8.50079 19.8972 8.65908 20.2783 8.94022 20.5594C9.22135 20.8405 9.60242 20.9988 10 20.9996H25C25.3976 20.9988 25.7787 20.8405 26.0598 20.5594C26.3409 20.2783 26.4992 19.8972 26.5 19.4996V10.2221L27.8177 11.2496L28.75 10.0706L17.959 1.6601ZM19 19.4996H16V13.4996H19V19.4996ZM20.5 19.4996V13.4996C20.4996 13.1019 20.3414 12.7206 20.0602 12.4394C19.779 12.1582 19.3977 12 19 11.9996H16C15.6023 12 15.221 12.1582 14.9398 12.4394C14.6586 12.7206 14.5004 13.1019 14.5 13.4996V19.4996H10V9.0461L17.5 3.2036L25 9.0536V19.4996H20.5Z" fill="#000000"/>
<path d="M7.956 29.48V38H6.6V34.244H2.304V38H0.96V29.48H2.304V33.044H6.6V29.48H7.956ZM12.4245 38.12C11.9285 38.12 11.4845 38.036 11.0925 37.868C10.7005 37.692 10.3605 37.452 10.0725 37.148C9.7925 36.844 9.5765 36.5 9.4245 36.116C9.2725 35.724 9.1965 35.308 9.1965 34.868C9.1965 34.428 9.2725 34.012 9.4245 33.62C9.5765 33.228 9.7925 32.884 10.0725 32.588C10.3605 32.284 10.7005 32.048 11.0925 31.88C11.4925 31.704 11.9365 31.616 12.4245 31.616C12.9125 31.616 13.3525 31.704 13.7445 31.88C14.1445 32.048 14.4845 32.284 14.7645 32.588C15.0525 32.884 15.2725 33.228 15.4245 33.62C15.5765 34.012 15.6525 34.428 15.6525 34.868C15.6525 35.308 15.5765 35.724 15.4245 36.116C15.2725 36.5 15.0525 36.844 14.7645 37.148C14.4845 37.452 14.1445 37.692 13.7445 37.868C13.3525 38.036 12.9125 38.12 12.4245 38.12ZM10.5525 34.88C10.5525 35.28 10.6365 35.64 10.8045 35.96C10.9725 36.28 11.1965 36.532 11.4765 36.716C11.7565 36.9 12.0725 36.992 12.4245 36.992C12.7685 36.992 13.0805 36.9 13.3605 36.716C13.6485 36.524 13.8765 36.268 14.0445 35.948C14.2125 35.62 14.2965 35.26 14.2965 34.868C14.2965 34.468 14.2125 34.108 14.0445 33.788C13.8765 33.468 13.6485 33.216 13.3605 33.032C13.0805 32.84 12.7685 32.744 12.4245 32.744C12.0725 32.744 11.7565 32.84 11.4765 33.032C11.1965 33.224 10.9725 33.48 10.8045 33.8C10.6365 34.112 10.5525 34.472 10.5525 34.88ZM26.4233 38H25.1033V34.484C25.1033 33.9 25.0073 33.472 24.8153 33.2C24.6233 32.928 24.3433 32.792 23.9753 32.792C23.6073 32.792 23.2633 32.932 22.9433 33.212C22.6313 33.484 22.4113 33.84 22.2833 34.28V38H20.9633V34.484C20.9633 33.9 20.8673 33.472 20.6753 33.2C20.4833 32.928 20.2073 32.792 19.8473 32.792C19.4793 32.792 19.1353 32.928 18.8153 33.2C18.5033 33.472 18.2793 33.828 18.1433 34.268V38H16.8232V31.724H18.0233V32.984C18.2713 32.544 18.5953 32.208 18.9953 31.976C19.4033 31.736 19.8673 31.616 20.3873 31.616C20.9073 31.616 21.3153 31.752 21.6113 32.024C21.9153 32.296 22.1033 32.636 22.1753 33.044C22.4473 32.58 22.7793 32.228 23.1713 31.988C23.5713 31.74 24.0273 31.616 24.5393 31.616C24.9073 31.616 25.2153 31.684 25.4633 31.82C25.7113 31.956 25.9033 32.144 26.0393 32.384C26.1753 32.616 26.2713 32.888 26.3273 33.2C26.3913 33.504 26.4233 33.828 26.4233 34.172V38ZM30.7883 38.12C30.3003 38.12 29.8563 38.036 29.4563 37.868C29.0643 37.692 28.7243 37.456 28.4363 37.16C28.1483 36.856 27.9243 36.512 27.7643 36.128C27.6123 35.736 27.5363 35.32 27.5363 34.88C27.5363 34.288 27.6723 33.748 27.9443 33.26C28.2163 32.764 28.5963 32.368 29.0843 32.072C29.5723 31.768 30.1443 31.616 30.8003 31.616C31.4563 31.616 32.0203 31.768 32.4923 32.072C32.9723 32.368 33.3443 32.76 33.6083 33.248C33.8723 33.736 34.0043 34.26 34.0043 34.82C34.0043 34.916 34.0003 35.008 33.9923 35.096C33.9843 35.176 33.9763 35.244 33.9683 35.3H28.9403C28.9643 35.668 29.0643 35.992 29.2403 36.272C29.4243 36.544 29.6563 36.76 29.9363 36.92C30.2163 37.072 30.5163 37.148 30.8363 37.148C31.1883 37.148 31.5203 37.06 31.8323 36.884C32.1523 36.708 32.3683 36.476 32.4803 36.188L33.6083 36.512C33.4723 36.816 33.2643 37.092 32.9843 37.34C32.7123 37.58 32.3883 37.772 32.0123 37.916C31.6363 38.052 31.2283 38.12 30.7883 38.12ZM28.9043 34.424H32.6963C32.6723 34.064 32.5683 33.748 32.3843 33.476C32.2083 33.196 31.9803 32.98 31.7003 32.828C31.4283 32.668 31.1243 32.588 30.7883 32.588C30.4603 32.588 30.1563 32.668 29.8763 32.828C29.6043 32.98 29.3803 33.196 29.2043 33.476C29.0283 33.748 28.9283 34.064 28.9043 34.424Z" fill="#000000"/>
</svg>




