<svg width="47" height="44" viewBox="0 0 47 44" fill="none" xmlns="http://www.w3.org/2000/svg">
<path d="M18.5 2H28.5C29.2956 2 30.0587 2.31607 30.6213 2.87868C31.1839 3.44129 31.5 4.20435 31.5 5V19C31.5 19.7956 31.1839 20.5587 30.6213 21.1213C30.0587 21.6839 29.2956 22 28.5 22H18.5C17.7044 22 16.9413 21.6839 16.3787 21.1213C15.8161 20.5587 15.5 19.7956 15.5 19V5C15.5 4.20435 15.8161 3.44129 16.3787 2.87868C16.9413 2.31607 17.7044 2 18.5 2ZM18.5 4C18.2348 4 17.9804 4.10536 17.7929 4.29289C17.6054 4.48043 17.5 4.73478 17.5 5V19C17.5 19.2652 17.6054 19.5196 17.7929 19.7071C17.9804 19.8946 18.2348 20 18.5 20H28.5C28.7652 20 29.0196 19.8946 29.2071 19.7071C29.3946 19.5196 29.5 19.2652 29.5 19V5C29.5 4.73478 29.3946 4.48043 29.2071 4.29289C29.0196 4.10536 28.7652 4 28.5 4H18.5ZM20.5 5H26.5C26.7652 5 27.0196 5.10536 27.2071 5.29289C27.3946 5.48043 27.5 5.73478 27.5 6C27.5 6.26522 27.3946 6.51957 27.2071 6.70711C27.0196 6.89464 26.7652 7 26.5 7H20.5C20.2348 7 19.9804 6.89464 19.7929 6.70711C19.6054 6.51957 19.5 6.26522 19.5 6C19.5 5.73478 19.6054 5.48043 19.7929 5.29289C19.9804 5.10536 20.2348 5 20.5 5ZM20.5 17H22.5C22.7652 17 23.0196 17.1054 23.2071 17.2929C23.3946 17.4804 23.5 17.7348 23.5 18C23.5 18.2652 23.3946 18.5196 23.2071 18.7071C23.0196 18.8946 22.7652 19 22.5 19H20.5C20.2348 19 19.9804 18.8946 19.7929 18.7071C19.6054 18.5196 19.5 18.2652 19.5 18C19.5 17.7348 19.6054 17.4804 19.7929 17.2929C19.9804 17.1054 20.2348 17 20.5 17ZM20.5 13H26.5C26.7652 13 27.0196 13.1054 27.2071 13.2929C27.3946 13.4804 27.5 13.7348 27.5 14C27.5 14.2652 27.3946 14.5196 27.2071 14.7071C27.0196 14.8946 26.7652 15 26.5 15H20.5C20.2348 15 19.9804 14.8946 19.7929 14.7071C19.6054 14.5196 19.5 14.2652 19.5 14C19.5 13.7348 19.6054 13.4804 19.7929 13.2929C19.9804 13.1054 20.2348 13 20.5 13ZM20.5 9H26.5C26.7652 9 27.0196 9.10536 27.2071 9.29289C27.3946 9.48043 27.5 9.73478 27.5 10C27.5 10.2652 27.3946 10.5196 27.2071 10.7071C27.0196 10.8946 26.7652 11 26.5 11H20.5C20.2348 11 19.9804 10.8946 19.7929 10.7071C19.6054 10.5196 19.5 10.2652 19.5 10C19.5 9.73478 19.6054 9.48043 19.7929 9.29289C19.9804 9.10536 20.2348 9 20.5 9Z" fill="#F2F7FC"/>
<path d="M0.96 38V29.48H4.668C5.052 29.48 5.404 29.56 5.724 29.72C6.044 29.88 6.32 30.092 6.552 30.356C6.792 30.62 6.976 30.916 7.104 31.244C7.24 31.572 7.308 31.908 7.308 32.252C7.308 32.628 7.24 32.988 7.104 33.332C6.968 33.676 6.772 33.972 6.516 34.22C6.268 34.468 5.976 34.648 5.64 34.76L7.644 38H6.132L4.284 35.036H2.304V38H0.96ZM2.304 33.848H4.656C4.904 33.848 5.124 33.776 5.316 33.632C5.508 33.488 5.66 33.296 5.772 33.056C5.884 32.808 5.94 32.54 5.94 32.252C5.94 31.956 5.876 31.692 5.748 31.46C5.62 31.22 5.452 31.028 5.244 30.884C5.044 30.74 4.824 30.668 4.584 30.668H2.304V33.848ZM11.3704 38.12C10.8824 38.12 10.4384 38.036 10.0384 37.868C9.64638 37.692 9.30638 37.456 9.01838 37.16C8.73038 36.856 8.50638 36.512 8.34638 36.128C8.19438 35.736 8.11838 35.32 8.11838 34.88C8.11838 34.288 8.25438 33.748 8.52637 33.26C8.79838 32.764 9.17838 32.368 9.66638 32.072C10.1544 31.768 10.7264 31.616 11.3824 31.616C12.0384 31.616 12.6024 31.768 13.0744 32.072C13.5544 32.368 13.9264 32.76 14.1904 33.248C14.4544 33.736 14.5864 34.26 14.5864 34.82C14.5864 34.916 14.5824 35.008 14.5744 35.096C14.5664 35.176 14.5584 35.244 14.5504 35.3H9.52238C9.54638 35.668 9.64638 35.992 9.82238 36.272C10.0064 36.544 10.2384 36.76 10.5184 36.92C10.7984 37.072 11.0984 37.148 11.4184 37.148C11.7704 37.148 12.1024 37.06 12.4144 36.884C12.7344 36.708 12.9504 36.476 13.0624 36.188L14.1904 36.512C14.0544 36.816 13.8464 37.092 13.5664 37.34C13.2944 37.58 12.9704 37.772 12.5944 37.916C12.2184 38.052 11.8104 38.12 11.3704 38.12ZM9.48638 34.424H13.2784C13.2544 34.064 13.1504 33.748 12.9664 33.476C12.7904 33.196 12.5624 32.98 12.2824 32.828C12.0104 32.668 11.7064 32.588 11.3704 32.588C11.0424 32.588 10.7384 32.668 10.4584 32.828C10.1864 32.98 9.96238 33.196 9.78638 33.476C9.61038 33.748 9.51038 34.064 9.48638 34.424ZM17.8951 38.12C17.3671 38.12 16.8671 38.036 16.3951 37.868C15.9231 37.692 15.5191 37.432 15.1831 37.088L15.6751 36.2C16.0351 36.52 16.3951 36.752 16.7551 36.896C17.1231 37.04 17.4871 37.112 17.8471 37.112C18.2151 37.112 18.5151 37.044 18.7471 36.908C18.9791 36.764 19.0951 36.556 19.0951 36.284C19.0951 36.084 19.0351 35.936 18.9151 35.84C18.7951 35.744 18.6191 35.66 18.3871 35.588C18.1631 35.516 17.8911 35.436 17.5711 35.348C17.1231 35.212 16.7471 35.072 16.4431 34.928C16.1391 34.776 15.9111 34.592 15.7591 34.376C15.6071 34.16 15.5311 33.884 15.5311 33.548C15.5311 33.14 15.6351 32.792 15.8431 32.504C16.0511 32.216 16.3391 31.996 16.7071 31.844C17.0831 31.692 17.5151 31.616 18.0031 31.616C18.4591 31.616 18.8791 31.688 19.2631 31.832C19.6551 31.968 19.9991 32.184 20.2951 32.48L19.7311 33.356C19.4511 33.1 19.1631 32.912 18.8671 32.792C18.5791 32.672 18.2671 32.612 17.9311 32.612C17.7391 32.612 17.5551 32.636 17.3791 32.684C17.2031 32.724 17.0551 32.804 16.9351 32.924C16.8231 33.036 16.7671 33.196 16.7671 33.404C16.7671 33.572 16.8151 33.708 16.9111 33.812C17.0071 33.916 17.1511 34.004 17.3431 34.076C17.5351 34.148 17.7711 34.228 18.0511 34.316C18.5391 34.46 18.9551 34.604 19.2991 34.748C19.6431 34.884 19.9071 35.064 20.0911 35.288C20.2831 35.504 20.3791 35.804 20.3791 36.188C20.3791 36.796 20.1511 37.272 19.6951 37.616C19.2471 37.952 18.6471 38.12 17.8951 38.12ZM21.4976 35.564V31.724H22.8176V35.3C22.8176 35.86 22.9176 36.284 23.1176 36.572C23.3256 36.852 23.6256 36.992 24.0176 36.992C24.2656 36.992 24.5056 36.94 24.7376 36.836C24.9776 36.732 25.1936 36.58 25.3856 36.38C25.5856 36.172 25.7456 35.924 25.8656 35.636V31.724H27.1856V36.512C27.1856 36.664 27.2136 36.772 27.2696 36.836C27.3256 36.9 27.4176 36.936 27.5456 36.944V38C27.4096 38.024 27.2976 38.04 27.2096 38.048C27.1216 38.056 27.0376 38.06 26.9576 38.06C26.7176 38.06 26.5176 37.996 26.3576 37.868C26.1976 37.732 26.1056 37.56 26.0816 37.352L26.0576 36.728C25.7776 37.184 25.4136 37.532 24.9656 37.772C24.5176 38.004 24.0256 38.12 23.4896 38.12C22.8336 38.12 22.3376 37.904 22.0016 37.472C21.6656 37.04 21.4976 36.404 21.4976 35.564ZM38.4701 38H37.1501V34.484C37.1501 33.9 37.0541 33.472 36.8621 33.2C36.6701 32.928 36.3901 32.792 36.0221 32.792C35.6541 32.792 35.3101 32.932 34.9901 33.212C34.6781 33.484 34.4581 33.84 34.3301 34.28V38H33.0101V34.484C33.0101 33.9 32.9141 33.472 32.7221 33.2C32.5301 32.928 32.2541 32.792 31.8941 32.792C31.5261 32.792 31.1821 32.928 30.8621 33.2C30.5501 33.472 30.3261 33.828 30.1901 34.268V38H28.8701V31.724H30.0701V32.984C30.3181 32.544 30.6421 32.208 31.0421 31.976C31.4501 31.736 31.9141 31.616 32.4341 31.616C32.9541 31.616 33.3621 31.752 33.6581 32.024C33.9621 32.296 34.1501 32.636 34.2221 33.044C34.4941 32.58 34.8261 32.228 35.2181 31.988C35.6181 31.74 36.0741 31.616 36.5861 31.616C36.9541 31.616 37.2621 31.684 37.5101 31.82C37.7581 31.956 37.9501 32.144 38.0861 32.384C38.2221 32.616 38.3181 32.888 38.3741 33.2C38.4381 33.504 38.4701 33.828 38.4701 34.172V38ZM42.8352 38.12C42.3472 38.12 41.9032 38.036 41.5032 37.868C41.1112 37.692 40.7712 37.456 40.4832 37.16C40.1952 36.856 39.9712 36.512 39.8112 36.128C39.6592 35.736 39.5832 35.32 39.5832 34.88C39.5832 34.288 39.7192 33.748 39.9912 33.26C40.2632 32.764 40.6432 32.368 41.1312 32.072C41.6192 31.768 42.1912 31.616 42.8472 31.616C43.5032 31.616 44.0672 31.768 44.5392 32.072C45.0192 32.368 45.3912 32.76 45.6552 33.248C45.9192 33.736 46.0512 34.26 46.0512 34.82C46.0512 34.916 46.0472 35.008 46.0392 35.096C46.0312 35.176 46.0232 35.244 46.0152 35.3H40.9872C41.0112 35.668 41.1112 35.992 41.2872 36.272C41.4712 36.544 41.7032 36.76 41.9832 36.92C42.2632 37.072 42.5632 37.148 42.8832 37.148C43.2352 37.148 43.5672 37.06 43.8792 36.884C44.1992 36.708 44.4152 36.476 44.5272 36.188L45.6552 36.512C45.5192 36.816 45.3112 37.092 45.0312 37.34C44.7592 37.58 44.4352 37.772 44.0592 37.916C43.6832 38.052 43.2752 38.12 42.8352 38.12ZM40.9512 34.424H44.7432C44.7192 34.064 44.6152 33.748 44.4312 33.476C44.2552 33.196 44.0272 32.98 43.7472 32.828C43.4752 32.668 43.1712 32.588 42.8352 32.588C42.5072 32.588 42.2032 32.668 41.9232 32.828C41.6512 32.98 41.4272 33.196 41.2512 33.476C41.0752 33.748 40.9752 34.064 40.9512 34.424Z" fill="#F2F7FC"/>
</svg>
