<svg width="47" height="47" viewBox="0 0 47 47" fill="none" xmlns="http://www.w3.org/2000/svg">
<path d="M18.5 2H28.5C29.2956 2 30.0587 2.31607 30.6213 2.87868C31.1839 3.44129 31.5 4.20435 31.5 5V19C31.5 19.7956 31.1839 20.5587 30.6213 21.1213C30.0587 21.6839 29.2956 22 28.5 22H18.5C17.7044 22 16.9413 21.6839 16.3787 21.1213C15.8161 20.5587 15.5 19.7956 15.5 19V5C15.5 4.20435 15.8161 3.44129 16.3787 2.87868C16.9413 2.31607 17.7044 2 18.5 2ZM18.5 4C18.2348 4 17.9804 4.10536 17.7929 4.29289C17.6054 4.48043 17.5 4.73478 17.5 5V19C17.5 19.2652 17.6054 19.5196 17.7929 19.7071C17.9804 19.8946 18.2348 20 18.5 20H28.5C28.7652 20 29.0196 19.8946 29.2071 19.7071C29.3946 19.5196 29.5 19.2652 29.5 19V5C29.5 4.73478 29.3946 4.48043 29.2071 4.29289C29.0196 4.10536 28.7652 4 28.5 4H18.5ZM20.5 5H26.5C26.7652 5 27.0196 5.10536 27.2071 5.29289C27.3946 5.48043 27.5 5.73478 27.5 6C27.5 6.26522 27.3946 6.51957 27.2071 6.70711C27.0196 6.89464 26.7652 7 26.5 7H20.5C20.2348 7 19.9804 6.89464 19.7929 6.70711C19.6054 6.51957 19.5 6.26522 19.5 6C19.5 5.73478 19.6054 5.48043 19.7929 5.29289C19.9804 5.10536 20.2348 5 20.5 5ZM20.5 17H22.5C22.7652 17 23.0196 17.1054 23.2071 17.2929C23.3946 17.4804 23.5 17.7348 23.5 18C23.5 18.2652 23.3946 18.5196 23.2071 18.7071C23.0196 18.8946 22.7652 19 22.5 19H20.5C20.2348 19 19.9804 18.8946 19.7929 18.7071C19.6054 18.5196 19.5 18.2652 19.5 18C19.5 17.7348 19.6054 17.4804 19.7929 17.2929C19.9804 17.1054 20.2348 17 20.5 17ZM20.5 13H26.5C26.7652 13 27.0196 13.1054 27.2071 13.2929C27.3946 13.4804 27.5 13.7348 27.5 14C27.5 14.2652 27.3946 14.5196 27.2071 14.7071C27.0196 14.8946 26.7652 15 26.5 15H20.5C20.2348 15 19.9804 14.8946 19.7929 14.7071C19.6054 14.5196 19.5 14.2652 19.5 14C19.5 13.7348 19.6054 13.4804 19.7929 13.2929C19.9804 13.1054 20.2348 13 20.5 13ZM20.5 9H26.5C26.7652 9 27.0196 9.10536 27.2071 9.29289C27.3946 9.48043 27.5 9.73478 27.5 10C27.5 10.2652 27.3946 10.5196 27.2071 10.7071C27.0196 10.8946 26.7652 11 26.5 11H20.5C20.2348 11 19.9804 10.8946 19.7929 10.7071C19.6054 10.5196 19.5 10.2652 19.5 10C19.5 9.73478 19.6054 9.48043 19.7929 9.29289C19.9804 9.10536 20.2348 9 20.5 9Z" fill="#1A1003" fill-opacity="0.5"/>
<path d="M0.96 41V32.48H4.668C5.052 32.48 5.404 32.56 5.724 32.72C6.044 32.88 6.32 33.092 6.552 33.356C6.792 33.62 6.976 33.916 7.104 34.244C7.24 34.572 7.308 34.908 7.308 35.252C7.308 35.628 7.24 35.988 7.104 36.332C6.968 36.676 6.772 36.972 6.516 37.22C6.268 37.468 5.976 37.648 5.64 37.76L7.644 41H6.132L4.284 38.036H2.304V41H0.96ZM2.304 36.848H4.656C4.904 36.848 5.124 36.776 5.316 36.632C5.508 36.488 5.66 36.296 5.772 36.056C5.884 35.808 5.94 35.54 5.94 35.252C5.94 34.956 5.876 34.692 5.748 34.46C5.62 34.22 5.452 34.028 5.244 33.884C5.044 33.74 4.824 33.668 4.584 33.668H2.304V36.848ZM11.3704 41.12C10.8824 41.12 10.4384 41.036 10.0384 40.868C9.64638 40.692 9.30638 40.456 9.01838 40.16C8.73038 39.856 8.50638 39.512 8.34638 39.128C8.19438 38.736 8.11838 38.32 8.11838 37.88C8.11838 37.288 8.25438 36.748 8.52637 36.26C8.79838 35.764 9.17838 35.368 9.66638 35.072C10.1544 34.768 10.7264 34.616 11.3824 34.616C12.0384 34.616 12.6024 34.768 13.0744 35.072C13.5544 35.368 13.9264 35.76 14.1904 36.248C14.4544 36.736 14.5864 37.26 14.5864 37.82C14.5864 37.916 14.5824 38.008 14.5744 38.096C14.5664 38.176 14.5584 38.244 14.5504 38.3H9.52238C9.54638 38.668 9.64638 38.992 9.82238 39.272C10.0064 39.544 10.2384 39.76 10.5184 39.92C10.7984 40.072 11.0984 40.148 11.4184 40.148C11.7704 40.148 12.1024 40.06 12.4144 39.884C12.7344 39.708 12.9504 39.476 13.0624 39.188L14.1904 39.512C14.0544 39.816 13.8464 40.092 13.5664 40.34C13.2944 40.58 12.9704 40.772 12.5944 40.916C12.2184 41.052 11.8104 41.12 11.3704 41.12ZM9.48638 37.424H13.2784C13.2544 37.064 13.1504 36.748 12.9664 36.476C12.7904 36.196 12.5624 35.98 12.2824 35.828C12.0104 35.668 11.7064 35.588 11.3704 35.588C11.0424 35.588 10.7384 35.668 10.4584 35.828C10.1864 35.98 9.96238 36.196 9.78638 36.476C9.61038 36.748 9.51038 37.064 9.48638 37.424ZM17.8951 41.12C17.3671 41.12 16.8671 41.036 16.3951 40.868C15.9231 40.692 15.5191 40.432 15.1831 40.088L15.6751 39.2C16.0351 39.52 16.3951 39.752 16.7551 39.896C17.1231 40.04 17.4871 40.112 17.8471 40.112C18.2151 40.112 18.5151 40.044 18.7471 39.908C18.9791 39.764 19.0951 39.556 19.0951 39.284C19.0951 39.084 19.0351 38.936 18.9151 38.84C18.7951 38.744 18.6191 38.66 18.3871 38.588C18.1631 38.516 17.8911 38.436 17.5711 38.348C17.1231 38.212 16.7471 38.072 16.4431 37.928C16.1391 37.776 15.9111 37.592 15.7591 37.376C15.6071 37.16 15.5311 36.884 15.5311 36.548C15.5311 36.14 15.6351 35.792 15.8431 35.504C16.0511 35.216 16.3391 34.996 16.7071 34.844C17.0831 34.692 17.5151 34.616 18.0031 34.616C18.4591 34.616 18.8791 34.688 19.2631 34.832C19.6551 34.968 19.9991 35.184 20.2951 35.48L19.7311 36.356C19.4511 36.1 19.1631 35.912 18.8671 35.792C18.5791 35.672 18.2671 35.612 17.9311 35.612C17.7391 35.612 17.5551 35.636 17.3791 35.684C17.2031 35.724 17.0551 35.804 16.9351 35.924C16.8231 36.036 16.7671 36.196 16.7671 36.404C16.7671 36.572 16.8151 36.708 16.9111 36.812C17.0071 36.916 17.1511 37.004 17.3431 37.076C17.5351 37.148 17.7711 37.228 18.0511 37.316C18.5391 37.46 18.9551 37.604 19.2991 37.748C19.6431 37.884 19.9071 38.064 20.0911 38.288C20.2831 38.504 20.3791 38.804 20.3791 39.188C20.3791 39.796 20.1511 40.272 19.6951 40.616C19.2471 40.952 18.6471 41.12 17.8951 41.12ZM21.4976 38.564V34.724H22.8176V38.3C22.8176 38.86 22.9176 39.284 23.1176 39.572C23.3256 39.852 23.6256 39.992 24.0176 39.992C24.2656 39.992 24.5056 39.94 24.7376 39.836C24.9776 39.732 25.1936 39.58 25.3856 39.38C25.5856 39.172 25.7456 38.924 25.8656 38.636V34.724H27.1856V39.512C27.1856 39.664 27.2136 39.772 27.2696 39.836C27.3256 39.9 27.4176 39.936 27.5456 39.944V41C27.4096 41.024 27.2976 41.04 27.2096 41.048C27.1216 41.056 27.0376 41.06 26.9576 41.06C26.7176 41.06 26.5176 40.996 26.3576 40.868C26.1976 40.732 26.1056 40.56 26.0816 40.352L26.0576 39.728C25.7776 40.184 25.4136 40.532 24.9656 40.772C24.5176 41.004 24.0256 41.12 23.4896 41.12C22.8336 41.12 22.3376 40.904 22.0016 40.472C21.6656 40.04 21.4976 39.404 21.4976 38.564ZM38.4701 41H37.1501V37.484C37.1501 36.9 37.0541 36.472 36.8621 36.2C36.6701 35.928 36.3901 35.792 36.0221 35.792C35.6541 35.792 35.3101 35.932 34.9901 36.212C34.6781 36.484 34.4581 36.84 34.3301 37.28V41H33.0101V37.484C33.0101 36.9 32.9141 36.472 32.7221 36.2C32.5301 35.928 32.2541 35.792 31.8941 35.792C31.5261 35.792 31.1821 35.928 30.8621 36.2C30.5501 36.472 30.3261 36.828 30.1901 37.268V41H28.8701V34.724H30.0701V35.984C30.3181 35.544 30.6421 35.208 31.0421 34.976C31.4501 34.736 31.9141 34.616 32.4341 34.616C32.9541 34.616 33.3621 34.752 33.6581 35.024C33.9621 35.296 34.1501 35.636 34.2221 36.044C34.4941 35.58 34.8261 35.228 35.2181 34.988C35.6181 34.74 36.0741 34.616 36.5861 34.616C36.9541 34.616 37.2621 34.684 37.5101 34.82C37.7581 34.956 37.9501 35.144 38.0861 35.384C38.2221 35.616 38.3181 35.888 38.3741 36.2C38.4381 36.504 38.4701 36.828 38.4701 37.172V41ZM42.8352 41.12C42.3472 41.12 41.9032 41.036 41.5032 40.868C41.1112 40.692 40.7712 40.456 40.4832 40.16C40.1952 39.856 39.9712 39.512 39.8112 39.128C39.6592 38.736 39.5832 38.32 39.5832 37.88C39.5832 37.288 39.7192 36.748 39.9912 36.26C40.2632 35.764 40.6432 35.368 41.1312 35.072C41.6192 34.768 42.1912 34.616 42.8472 34.616C43.5032 34.616 44.0672 34.768 44.5392 35.072C45.0192 35.368 45.3912 35.76 45.6552 36.248C45.9192 36.736 46.0512 37.26 46.0512 37.82C46.0512 37.916 46.0472 38.008 46.0392 38.096C46.0312 38.176 46.0232 38.244 46.0152 38.3H40.9872C41.0112 38.668 41.1112 38.992 41.2872 39.272C41.4712 39.544 41.7032 39.76 41.9832 39.92C42.2632 40.072 42.5632 40.148 42.8832 40.148C43.2352 40.148 43.5672 40.06 43.8792 39.884C44.1992 39.708 44.4152 39.476 44.5272 39.188L45.6552 39.512C45.5192 39.816 45.3112 40.092 45.0312 40.34C44.7592 40.58 44.4352 40.772 44.0592 40.916C43.6832 41.052 43.2752 41.12 42.8352 41.12ZM40.9512 37.424H44.7432C44.7192 37.064 44.6152 36.748 44.4312 36.476C44.2552 36.196 44.0272 35.98 43.7472 35.828C43.4752 35.668 43.1712 35.588 42.8352 35.588C42.5072 35.588 42.2032 35.668 41.9232 35.828C41.6512 35.98 41.4272 36.196 41.2512 36.476C41.0752 36.748 40.9752 37.064 40.9512 37.424Z" fill="black"/>
</svg>
